<svg width="16" height="16" viewBox="0 0 16 16" fill="none" xmlns="http://www.w3.org/2000/svg">
<path d="M8.98999 13.094C8.29399 13.634 7.48399 13.904 6.55999 13.904C5.81599 13.904 5.13199 13.721 4.50799 13.355C3.88399 12.989 3.38899 12.494 3.02299 11.87C2.65699 11.246 2.47399 10.568 2.47399 9.83603C2.47399 9.21203 2.60599 8.62403 2.86999 8.07203C3.13399 7.52003 3.51199 7.05203 4.00399 6.66803L4.27399 6.45203L3.01399 4.92203L2.76199 5.13803C2.04199 5.71403 1.48699 6.41003 1.09699 7.22603C0.706993 8.04203 0.511993 8.91203 0.511993 9.83603C0.511993 10.928 0.787993 11.942 1.33999 12.878C1.87999 13.79 2.60599 14.516 3.51799 15.056C4.45399 15.608 5.46799 15.884 6.55999 15.884C7.32799 15.884 8.07199 15.74 8.79199 15.452C9.51199 15.164 10.154 14.756 10.718 14.228L11.078 13.886L9.15199 12.968L8.98999 13.094ZM15.254 12.464C15.134 12.296 14.954 12.212 14.714 12.212H13.652L11.942 7.56803L7.42399 7.58603L7.35199 6.50603L10.52 6.52403L10.502 4.65203H7.18999L7.09999 3.01403C7.29199 2.85803 7.43899 2.67203 7.54099 2.45603C7.64299 2.24003 7.69399 2.01203 7.69399 1.77203C7.69399 1.31603 7.53499 0.926034 7.21699 0.602034C6.89899 0.278034 6.51199 0.116034 6.05599 0.116034C5.59999 0.116034 5.20999 0.278034 4.88599 0.602034C4.56199 0.926034 4.39999 1.31603 4.39999 1.77203C4.39999 2.01203 4.45999 2.24603 4.57999 2.47403C4.65199 2.64203 4.75399 2.79803 4.88599 2.94203L5.06599 3.10403L5.71399 9.47603L10.628 9.45803L12.428 13.994L15.416 13.976L15.452 13.706C15.488 13.55 15.5 13.37 15.488 13.166C15.476 12.854 15.398 12.62 15.254 12.464Z" fill="#0CBCB7"/>
</svg>
