<svg width="17" height="18" viewBox="0 0 17 18" fill="none" xmlns="http://www.w3.org/2000/svg">
<path d="M2.97377 0H14.0438C14.4158 0 14.7608 0.0930004 15.0788 0.279001C15.3968 0.465 15.6488 0.717001 15.8348 1.035C16.0208 1.353 16.1138 1.698 16.1138 2.07V15.93C16.1138 16.302 16.0208 16.647 15.8348 16.965C15.6488 17.283 15.3968 17.535 15.0788 17.721C14.7608 17.907 14.4158 18 14.0438 18H2.97377C2.60177 18 2.25377 17.907 1.92977 17.721C1.60577 17.535 1.35077 17.283 1.16477 16.965C0.97877 16.647 0.88577 16.302 0.88577 15.93V2.07C0.88577 1.698 0.97877 1.353 1.16477 1.035C1.35077 0.717001 1.60577 0.465 1.92977 0.279001C2.25377 0.0930004 2.60177 0 2.97377 0ZM6.77177 1.296C6.45977 1.296 6.19577 1.407 5.97977 1.629C5.76377 1.851 5.65577 2.118 5.65577 2.43C5.65577 2.742 5.76377 3.006 5.97977 3.222C6.19577 3.438 6.45977 3.546 6.77177 3.546C7.08377 3.546 7.34777 3.438 7.56377 3.222C7.77977 3.006 7.88777 2.742 7.88777 2.43C7.88777 2.118 7.77977 1.851 7.56377 1.629C7.34777 1.407 7.08377 1.296 6.77177 1.296ZM8.49977 14.58C9.38777 14.58 10.2068 14.361 10.9568 13.923C11.7068 13.485 12.3008 12.891 12.7388 12.141C13.1768 11.391 13.3958 10.572 13.3958 9.684C13.3958 8.796 13.1738 7.974 12.7298 7.218C12.2978 6.486 11.7068 5.901 10.9568 5.463C10.2068 5.025 9.38777 4.806 8.49977 4.806C7.61177 4.806 6.79577 5.025 6.05177 5.463C5.30777 5.901 4.71677 6.492 4.27877 7.236C3.84077 7.98 3.62177 8.796 3.62177 9.684C3.62177 10.572 3.84377 11.394 4.28777 12.15C4.71977 12.894 5.31077 13.485 6.06077 13.923C6.81077 14.361 7.62377 14.58 8.49977 14.58ZM3.31577 3.546C3.61577 3.546 3.87677 3.435 4.09877 3.213C4.32077 2.991 4.43177 2.727 4.43177 2.421C4.43177 2.115 4.32077 1.851 4.09877 1.629C3.87677 1.407 3.61277 1.296 3.30677 1.296C3.00077 1.296 2.73977 1.407 2.52377 1.629C2.30777 1.851 2.19977 2.118 2.19977 2.43C2.19977 2.742 2.30777 3.006 2.52377 3.222C2.73977 3.438 3.00377 3.546 3.31577 3.546ZM8.49977 5.67C9.23177 5.67 9.90677 5.85 10.5248 6.21C11.1428 6.57 11.6318 7.056 11.9918 7.668C12.3518 8.28 12.5318 8.952 12.5318 9.684C12.5318 10.416 12.3518 11.091 11.9918 11.709C11.6318 12.327 11.1428 12.816 10.5248 13.176C9.90677 13.536 9.23177 13.716 8.49977 13.716C7.76777 13.716 7.09577 13.536 6.48377 13.176C5.87177 12.816 5.38577 12.327 5.02577 11.709C4.66577 11.091 4.48577 10.419 4.48577 9.693C4.48577 8.967 4.66577 8.295 5.02577 7.677C5.38577 7.059 5.87477 6.57 6.49277 6.21C7.11077 5.85 7.77977 5.67 8.49977 5.67ZM8.49977 6.354C7.93577 6.354 7.41077 6.489 6.92477 6.759C6.43877 7.029 6.04277 7.398 5.73677 7.866C5.43077 8.334 5.25377 8.844 5.20577 9.396C5.54177 9.216 5.86577 9.138 6.17777 9.162C6.38177 9.174 6.67577 9.246 7.05977 9.378C7.33577 9.474 7.55177 9.54 7.70777 9.576C7.97177 9.636 8.23577 9.666 8.49977 9.666C8.76377 9.666 9.02777 9.63 9.29177 9.558C9.43577 9.522 9.64577 9.456 9.92177 9.36C10.2818 9.216 10.5638 9.138 10.7678 9.126C11.0918 9.114 11.4398 9.204 11.8118 9.396C11.7638 8.832 11.5868 8.319 11.2808 7.857C10.9748 7.395 10.5788 7.029 10.0928 6.759C9.60677 6.489 9.07577 6.354 8.49977 6.354Z" fill="#0CBCB7"/>
</svg>
