<svg width="18" height="14" viewBox="0 0 18 14" fill="none" xmlns="http://www.w3.org/2000/svg">
<path d="M8.514 0.987964H9.486C9.558 1.01196 9.612 1.02396 9.648 1.02396C10.344 1.07196 11.022 1.22796 11.682 1.49196C13.902 2.29596 15.834 3.69996 17.478 5.70396C18.174 6.56796 18.168 7.43796 17.46 8.31396C16.512 9.48996 15.372 10.504 14.04 11.356C12.9 12.088 11.748 12.58 10.584 12.832C10.368 12.88 10.044 12.934 9.612 12.994L9.486 13.012H8.514C8.442 12.988 8.382 12.976 8.334 12.976C7.734 12.916 7.146 12.79 6.57 12.598C4.266 11.83 2.238 10.384 0.486003 8.25996C0.198003 7.91196 0.0360035 7.53996 3.45521e-06 7.14396C-0.0359965 6.61596 0.162003 6.09996 0.594003 5.59596C1.566 4.43196 2.718 3.42996 4.05 2.58996C5.238 1.84596 6.414 1.35996 7.578 1.13196L8.514 0.987964ZM5.238 6.99996C5.238 7.67196 5.406 8.29596 5.742 8.87196C6.078 9.44796 6.534 9.90696 7.11 10.249C7.686 10.591 8.313 10.762 8.991 10.762C9.669 10.762 10.296 10.594 10.872 10.258C11.448 9.92196 11.904 9.46596 12.24 8.88996C12.576 8.31396 12.744 7.68696 12.744 7.00896C12.744 6.33096 12.576 5.70396 12.24 5.12796C11.904 4.55196 11.448 4.09596 10.872 3.75996C10.296 3.42396 9.669 3.25596 8.991 3.25596C8.313 3.25596 7.686 3.42396 7.11 3.75996C6.534 4.09596 6.078 4.54896 5.742 5.11896C5.406 5.68896 5.238 6.31596 5.238 6.99996ZM9.702 4.87596C9.33 5.18796 9.102 5.50896 9.018 5.83896C8.934 6.16896 9.006 6.48996 9.234 6.80196C9.666 7.44996 10.332 7.52796 11.232 7.03596C11.28 7.41996 11.163 7.81896 10.881 8.23296C10.599 8.64696 10.254 8.93196 9.846 9.08796C9.366 9.27996 8.88 9.30696 8.388 9.16896C7.896 9.03096 7.497 8.75796 7.191 8.34996C6.885 7.94196 6.735 7.48296 6.741 6.97296C6.747 6.46296 6.912 6.00996 7.236 5.61396C7.536 5.24196 7.926 4.98396 8.406 4.83996C8.886 4.69596 9.318 4.70796 9.702 4.87596Z" fill="#0CBCB7"/>
</svg>
