<svg width="18" height="18" viewBox="0 0 18 18" fill="none" xmlns="http://www.w3.org/2000/svg">
<path d="M10.404 6.19203C10.368 6.75603 10.47 7.30803 10.71 7.84803C10.854 8.17203 11.13 8.63403 11.538 9.23403L11.592 9.30603C12 9.88203 12.288 10.35 12.456 10.71C12.684 11.202 12.792 11.688 12.78 12.168C12.78 12.72 12.624 13.326 12.312 13.986C12.084 14.466 11.799 14.877 11.457 15.219C11.115 15.561 10.692 15.858 10.188 16.11L10.368 15.732C10.812 14.844 10.98 13.962 10.872 13.086C10.764 12.258 10.41 11.424 9.81 10.584C9.282 9.86403 9.126 9.02403 9.342 8.06403C9.474 7.42803 9.828 6.80403 10.404 6.19203ZM5.85 10.17C5.958 10.566 6.144 10.95 6.408 11.322C6.588 11.574 6.858 11.886 7.218 12.258L7.614 12.654C8.046 13.098 8.358 13.434 8.55 13.662C8.838 13.986 8.988 14.376 9 14.832C9.012 15.24 8.916 15.636 8.712 16.02C8.508 16.404 8.25 16.692 7.938 16.884C7.926 16.524 7.806 16.194 7.578 15.894C7.434 15.714 7.182 15.48 6.822 15.192L6.696 15.084C6.228 14.688 5.904 14.37 5.724 14.13C5.412 13.734 5.244 13.314 5.22 12.87C5.172 12.006 5.382 11.106 5.85 10.17ZM8.55 10.404C7.998 9.38403 7.89 8.43003 8.226 7.54203C8.322 7.26603 8.538 6.87003 8.874 6.35403C9.054 6.07803 9.186 5.86803 9.27 5.72403C9.714 4.93203 9.852 4.11903 9.684 3.28503C9.516 2.45103 9.066 1.73403 8.334 1.13403C8.406 1.68603 8.358 2.22603 8.19 2.75403C8.046 3.18603 7.8 3.64803 7.452 4.14003C7.368 4.27203 7.254 4.42803 7.11 4.60803L6.948 4.80603C6.828 4.97403 6.708 5.14803 6.588 5.32803C6.432 5.59203 6.294 5.86203 6.174 6.13803C6.018 6.48603 5.904 6.82203 5.832 7.14603C5.748 7.54203 5.724 7.92603 5.76 8.29803C5.784 8.73003 5.886 9.13803 6.066 9.52203C6.27 9.96603 6.558 10.374 6.93 10.746C7.35 11.178 7.872 11.568 8.496 11.916L8.676 12.024C8.82 12.132 8.958 12.24 9.09 12.348C9.27 12.504 9.414 12.666 9.522 12.834L8.55 10.404Z" fill="#0CBCB7"/>
</svg>
