<svg width="16" height="14" viewBox="0 0 16 14" fill="none" xmlns="http://www.w3.org/2000/svg">
<path d="M12.914 3.38199L12.788 3.32799H10.772L10.988 1.77999L1.07 0.699994L2.348 3.95799C1.652 4.55799 1.112 5.27799 0.728003 6.11799C0.332003 6.99399 0.134003 7.91799 0.134003 8.88999C0.134003 9.72999 0.284003 10.534 0.584003 11.302C0.884003 12.046 1.304 12.718 1.844 13.318H11.33C11.87 12.718 12.29 12.046 12.59 11.302C12.89 10.534 13.04 9.72999 13.04 8.88999C13.04 8.12199 12.917 7.38699 12.671 6.68499C12.425 5.98299 12.074 5.34999 11.618 4.78599H12.536C12.896 4.97799 13.226 5.25399 13.526 5.61399C14.018 6.20199 14.336 6.91599 14.48 7.75599C14.672 8.85999 14.534 10.126 14.066 11.554C14.006 11.746 14.012 11.932 14.084 12.112C14.156 12.292 14.276 12.418 14.444 12.49C14.504 12.514 14.582 12.526 14.678 12.526C14.81 12.526 14.933 12.484 15.047 12.4C15.161 12.316 15.242 12.202 15.29 12.058C15.818 10.426 15.986 8.94399 15.794 7.61199C15.638 6.50799 15.248 5.55999 14.624 4.76799C14.12 4.11999 13.55 3.65799 12.914 3.38199ZM11.924 6.72999C11.912 6.71799 11.9 6.70599 11.888 6.69399L11.834 6.67599C11.738 6.61599 11.636 6.57999 11.528 6.56799C10.712 6.41199 9.875 6.36099 9.017 6.41499C8.159 6.46899 7.388 6.61599 6.704 6.85599C5.888 7.14399 5.009 7.30599 4.067 7.34199C3.125 7.37799 2.18 7.28199 1.232 7.05399L1.178 7.03599C1.322 6.44799 1.55 5.90199 1.862 5.39799C2.174 4.89399 2.558 4.44999 3.014 4.06599H10.16C10.46 4.32999 10.7 4.56999 10.88 4.78599C11.324 5.32599 11.672 5.97399 11.924 6.72999Z" fill="#0CBCB7"/>
</svg>
