<svg width="16" height="14" viewBox="0 0 16 14" fill="none" xmlns="http://www.w3.org/2000/svg">
<path d="M15.668 7.41406H0.331996C0.271996 7.41406 0.220996 7.43806 0.178996 7.48606C0.136996 7.53406 0.118996 7.59106 0.124996 7.65706C0.130996 7.72306 0.145996 7.82806 0.169996 7.97206V8.00806C0.181996 8.06806 0.214996 8.11906 0.268996 8.16106C0.322996 8.20306 0.379996 8.22406 0.439996 8.22406H15.56C15.62 8.22406 15.674 8.20306 15.722 8.16106C15.77 8.11906 15.8 8.06806 15.812 8.00806L15.866 7.64806C15.878 7.58806 15.863 7.53406 15.821 7.48606C15.779 7.43806 15.728 7.41406 15.668 7.41406ZM7.892 6.47806C8.192 6.08206 8.384 5.68606 8.468 5.29006C8.54 4.96606 8.54 4.61206 8.468 4.22806C8.42 4.00006 8.312 3.66406 8.144 3.22006C7.964 2.70406 7.85 2.30206 7.802 2.01406C7.718 1.54606 7.748 1.09606 7.892 0.664061C7.676 1.07206 7.544 1.45606 7.496 1.81606C7.46 2.11606 7.472 2.41606 7.532 2.71606C7.58 2.89606 7.67 3.16006 7.802 3.50806C7.934 3.85606 8.024 4.12606 8.072 4.31806C8.144 4.63006 8.174 4.94206 8.162 5.25406C8.138 5.63806 8.048 6.04606 7.892 6.47806ZM9.116 5.66806C9.332 5.38006 9.47 5.09206 9.53 4.80406C9.578 4.57606 9.578 4.32406 9.53 4.04806C9.494 3.88006 9.416 3.64006 9.296 3.32806C9.164 2.94406 9.08 2.65006 9.044 2.44606C8.996 2.11006 9.02 1.78606 9.116 1.47406C8.9 1.89406 8.798 2.28406 8.81 2.64406C8.822 2.86006 8.9 3.15406 9.044 3.52606C9.188 3.89806 9.272 4.19806 9.296 4.42606C9.344 4.81006 9.284 5.22406 9.116 5.66806ZM6.74 5.66806C6.956 5.38006 7.094 5.09206 7.154 4.80406C7.202 4.57606 7.202 4.32406 7.154 4.04806C7.118 3.88006 7.04 3.64006 6.92 3.32806C6.788 2.94406 6.704 2.65006 6.668 2.44606C6.62 2.11006 6.644 1.78606 6.74 1.47406C6.524 1.89406 6.422 2.28406 6.434 2.64406C6.446 2.86006 6.524 3.15406 6.668 3.52606C6.812 3.89806 6.896 4.19806 6.92 4.42606C6.968 4.81006 6.908 5.22406 6.74 5.66806ZM15.434 8.72806H0.565996C0.505996 8.72806 0.460996 8.74906 0.430996 8.79106C0.400996 8.83306 0.391996 8.88406 0.403996 8.94406C0.727996 10.0361 1.274 11.0141 2.042 11.8781C2.09 11.9261 2.15 11.9681 2.222 12.0041C2.294 12.0401 2.36 12.0581 2.42 12.0581H13.58C13.64 12.0581 13.706 12.0401 13.778 12.0041C13.85 11.9681 13.91 11.9261 13.958 11.8781C14.726 11.0141 15.272 10.0361 15.596 8.94406C15.608 8.88406 15.599 8.83306 15.569 8.79106C15.539 8.74906 15.494 8.72806 15.434 8.72806ZM2.924 12.5441C2.864 12.5441 2.828 12.5591 2.816 12.5891C2.804 12.6191 2.822 12.6521 2.87 12.6881C3.038 12.8441 3.272 13.0181 3.572 13.2101C3.704 13.2941 3.842 13.3361 3.986 13.3361H12.032C12.188 13.3361 12.326 13.2941 12.446 13.2101C12.758 12.9941 12.986 12.8201 13.13 12.6881C13.178 12.6521 13.196 12.6191 13.184 12.5891C13.172 12.5591 13.136 12.5441 13.076 12.5441H2.924Z" fill="#0CBCB7"/>
</svg>
