<svg width="16" height="10" viewBox="0 0 16 10" fill="none" xmlns="http://www.w3.org/2000/svg">
<path d="M0.134003 0.895996C0.134003 0.847997 0.134003 0.805997 0.134003 0.769997C0.158003 0.517997 0.269003 0.325996 0.467003 0.193996C0.665003 0.0619965 0.866003 0.0559969 1.07 0.175997C1.298 0.307997 1.412 0.571997 1.412 0.967997V5.792H15.848V9.896H14.552V7.16H1.412V9.896H0.134003V0.895996ZM5.714 2.21H5.948C7.652 2.21 8.924 2.216 9.764 2.228H11.456C12.944 2.216 14.066 2.216 14.822 2.228C15.146 2.228 15.404 2.333 15.596 2.543C15.788 2.753 15.884 3.044 15.884 3.416V5.054H5.714V2.21ZM2.168 3.218C2.168 2.966 2.27 2.738 2.474 2.534C2.678 2.33 2.924 2.228 3.212 2.228H5.174V5.054H2.168V3.218Z" fill="#0CBCB7"/>
</svg>
