<svg width="16" height="12" viewBox="0 0 16 12" fill="none" xmlns="http://www.w3.org/2000/svg">
<path d="M15.866 3.66004C15.866 3.38404 15.728 3.24604 15.452 3.24604H15.218C15.026 3.25804 14.882 3.25804 14.786 3.24604C14.618 3.23404 14.48 3.25804 14.372 3.31804C14.264 3.37804 14.174 3.48604 14.102 3.64204C14.09 3.69004 14.042 3.75604 13.958 3.84004L13.832 3.98404L13.796 3.85804C13.772 3.79804 13.76 3.75604 13.76 3.73204C13.46 2.78404 13.1 1.94404 12.68 1.21204C12.5 0.864038 12.218 0.636038 11.834 0.528038L11.78 0.510037C11.552 0.426038 11.372 0.378037 11.24 0.366037L10.7 0.330038C9.74 0.246037 9.014 0.198037 8.522 0.186038C7.034 0.138038 5.774 0.198037 4.742 0.366037C4.358 0.426038 4.046 0.540037 3.806 0.708037C3.518 0.888038 3.308 1.14604 3.176 1.48204L2.456 3.12004C2.408 3.22804 2.354 3.39004 2.294 3.60604L2.186 3.91204L2.132 3.94804L2.024 3.80404C1.94 3.69604 1.88 3.61204 1.844 3.55204C1.748 3.34804 1.598 3.24604 1.394 3.24604H0.512C0.284 3.25804 0.158 3.37804 0.134 3.60604C0.122 3.76204 0.122 3.91804 0.134 4.07404C0.158 4.32604 0.29 4.45204 0.53 4.45204H1.952L1.844 4.56004C1.364 4.99204 1.058 5.48404 0.926 6.03604C0.638 7.08004 0.728 8.21404 1.196 9.43804C1.316 9.73804 1.544 9.95404 1.88 10.086C1.976 10.122 2.024 10.2 2.024 10.32V11.256C2.024 11.616 2.216 11.796 2.6 11.796H2.744C3.14 11.808 3.404 11.796 3.536 11.76C3.704 11.724 3.809 11.634 3.851 11.49C3.893 11.346 3.908 11.082 3.896 10.698V10.464L5.3 10.518C6.5 10.554 7.397 10.572 7.991 10.572C8.585 10.572 9.488 10.548 10.7 10.5L12.104 10.464V11.274C12.116 11.442 12.17 11.571 12.266 11.661C12.362 11.751 12.488 11.796 12.644 11.796H13.418C13.598 11.796 13.736 11.748 13.832 11.652C13.928 11.556 13.976 11.424 13.976 11.256C13.976 10.824 13.982 10.506 13.994 10.302C13.994 10.266 14.003 10.23 14.021 10.194C14.039 10.158 14.06 10.134 14.084 10.122C14.552 9.91804 14.849 9.54304 14.975 8.99704C15.101 8.45104 15.188 7.90204 15.236 7.35004C15.32 6.25804 14.954 5.32204 14.138 4.54204L14.066 4.45204H15.434C15.59 4.44004 15.701 4.40104 15.767 4.33504C15.833 4.26904 15.869 4.16104 15.875 4.01104C15.881 3.86104 15.878 3.74404 15.866 3.66004ZM3.464 3.28204C3.584 2.97004 3.794 2.51404 4.094 1.91404L4.202 1.68004C4.214 1.63204 4.244 1.59304 4.292 1.56304C4.34 1.53304 4.388 1.51204 4.436 1.50004C5.12 1.28404 5.822 1.17604 6.542 1.17604C7.862 1.15204 8.99 1.16404 9.926 1.21204C10.19 1.22404 10.586 1.28404 11.114 1.39204L11.582 1.50004C11.666 1.52404 11.732 1.57204 11.78 1.64404C12.248 2.37604 12.578 3.19204 12.77 4.09204V4.16404C9.578 3.74404 6.386 3.75004 3.194 4.18204L3.266 3.91204C3.338 3.62404 3.404 3.41404 3.464 3.28204ZM2.96 8.17804C2.684 8.17804 2.45 8.08504 2.258 7.89904C2.066 7.71304 1.967 7.48804 1.961 7.22404C1.955 6.96004 2.051 6.73204 2.249 6.54004C2.447 6.34804 2.684 6.25204 2.96 6.25204C3.236 6.25204 3.47 6.34804 3.662 6.54004C3.854 6.73204 3.95 6.96004 3.95 7.22404C3.95 7.48804 3.854 7.71304 3.662 7.89904C3.47 8.08504 3.236 8.17804 2.96 8.17804ZM10.808 6.66604C10.76 6.83404 10.682 7.07404 10.574 7.38604L10.412 7.92604C10.376 8.08204 10.28 8.16004 10.124 8.16004C8.708 8.14804 7.292 8.14804 5.876 8.16004C5.744 8.16004 5.648 8.08804 5.588 7.94404L5.174 6.63004C5.102 6.40204 5.192 6.28804 5.444 6.28804H10.52C10.676 6.28804 10.775 6.31804 10.817 6.37804C10.859 6.43804 10.856 6.53404 10.808 6.66604ZM13.04 8.17804C12.776 8.17804 12.545 8.08204 12.347 7.89004C12.149 7.69804 12.053 7.47004 12.059 7.20604C12.065 6.94204 12.167 6.71704 12.365 6.53104C12.563 6.34504 12.794 6.25204 13.058 6.25204C13.322 6.25204 13.553 6.34804 13.751 6.54004C13.949 6.73204 14.045 6.96004 14.039 7.22404C14.033 7.48804 13.934 7.71604 13.742 7.90804C13.55 8.10004 13.316 8.19004 13.04 8.17804Z" fill="#0CBCB7"/>
</svg>
