<svg width="16" height="12" viewBox="0 0 16 12" fill="none" xmlns="http://www.w3.org/2000/svg">
<path d="M15.83 3.64196C14.786 2.59796 13.589 1.79696 12.239 1.23896C10.889 0.680957 9.476 0.401957 8 0.401957C6.524 0.401957 5.111 0.680957 3.761 1.23896C2.411 1.79696 1.214 2.59796 0.170003 3.64196C0.146003 3.68996 0.134003 3.73196 0.134003 3.76796V3.83996C0.146003 3.85196 0.170003 3.87596 0.206003 3.91196L1.268 4.97396C1.292 5.02196 1.328 5.05796 1.376 5.08196H1.448C1.484 5.08196 1.526 5.06996 1.574 5.04596C2.426 4.18196 3.407 3.51896 4.517 3.05696C5.627 2.59496 6.788 2.36396 8 2.36396C9.212 2.36396 10.373 2.59496 11.483 3.05696C12.593 3.51896 13.58 4.18196 14.444 5.04596C14.492 5.06996 14.537 5.08196 14.579 5.08196C14.621 5.08196 14.654 5.06996 14.678 5.04596L15.83 3.89396C15.866 3.85796 15.884 3.81896 15.884 3.77696C15.884 3.73496 15.872 3.70196 15.848 3.67796L15.83 3.64196ZM8 3.42596C6.932 3.42596 5.909 3.62996 4.931 4.03796C3.953 4.44596 3.08 5.02796 2.312 5.78396C2.288 5.81996 2.276 5.86196 2.276 5.90996C2.276 5.95796 2.288 5.99996 2.312 6.03596L3.464 7.16996C3.5 7.20596 3.545 7.22396 3.599 7.22396C3.653 7.22396 3.686 7.20596 3.698 7.16996C4.274 6.59396 4.934 6.15296 5.678 5.84696C6.422 5.54096 7.196 5.38796 8 5.38796C8.804 5.38796 9.578 5.54096 10.322 5.84696C11.066 6.15296 11.726 6.59396 12.302 7.16996C12.338 7.20596 12.383 7.22396 12.437 7.22396C12.491 7.22396 12.524 7.20596 12.536 7.16996L13.688 6.03596C13.724 5.99996 13.742 5.95796 13.742 5.90996C13.742 5.86196 13.724 5.81996 13.688 5.78396C12.92 5.02796 12.047 4.44596 11.069 4.03796C10.091 3.62996 9.068 3.42596 8 3.42596ZM8 6.46796C7.34 6.46796 6.704 6.59396 6.092 6.84596C5.48 7.09796 4.934 7.45796 4.454 7.92596C4.418 7.96196 4.4 8.00396 4.4 8.05196C4.4 8.09996 4.418 8.14196 4.454 8.17796L5.606 9.31196C5.63 9.34796 5.666 9.36596 5.714 9.36596C5.762 9.36596 5.804 9.34796 5.84 9.31196C6.128 9.02396 6.458 8.80196 6.83 8.64596C7.202 8.48996 7.592 8.41196 8 8.41196C8.408 8.41196 8.798 8.48996 9.17 8.64596C9.542 8.80196 9.872 9.02396 10.16 9.31196C10.196 9.34796 10.238 9.36596 10.286 9.36596C10.334 9.36596 10.376 9.34796 10.412 9.31196L11.546 8.17796C11.582 8.14196 11.6 8.09996 11.6 8.05196C11.6 8.00396 11.582 7.96196 11.546 7.92596C11.066 7.45796 10.52 7.09796 9.908 6.84596C9.296 6.59396 8.66 6.46796 8 6.46796ZM8 9.67196C7.532 9.67196 7.118 9.83996 6.758 10.176C6.734 10.212 6.722 10.254 6.722 10.302C6.722 10.35 6.734 10.392 6.758 10.428L7.874 11.544C7.922 11.568 7.964 11.58 8 11.58C8.036 11.58 8.078 11.568 8.126 11.544L9.242 10.428C9.266 10.392 9.278 10.35 9.278 10.302C9.278 10.254 9.266 10.212 9.242 10.176C8.882 9.83996 8.468 9.67196 8 9.67196Z" fill="#0CBCB7"/>
</svg>
