<svg width="18" height="12" viewBox="0 0 18 12" fill="none" xmlns="http://www.w3.org/2000/svg">
<path d="M1.728 7.92599L2.322 8.62799L2.538 10.572H2.628L2.844 8.62799L3.438 7.92599L3.168 7.96199C2.94 7.98599 2.718 7.99799 2.502 7.99799C2.214 7.99799 1.956 7.97399 1.728 7.92599ZM2.592 2.66999C2.124 2.66999 1.692 2.78399 1.296 3.01199C0.9 3.23999 0.585 3.55199 0.351 3.94799C0.117 4.34399 0 4.77599 0 5.24399C0 5.71199 0.117 6.14399 0.351 6.53999C0.585 6.93599 0.9 7.25099 1.296 7.48499C1.692 7.71899 2.124 7.83599 2.592 7.83599C3.06 7.83599 3.492 7.71899 3.888 7.48499C4.284 7.25099 4.596 6.93599 4.824 6.53999C5.052 6.14399 5.166 5.71199 5.166 5.24399C5.166 4.77599 5.052 4.34399 4.824 3.94799C4.596 3.55199 4.284 3.23999 3.888 3.01199C3.492 2.78399 3.06 2.66999 2.592 2.66999ZM4.5 5.35199C4.584 5.35199 4.653 5.32499 4.707 5.27099C4.761 5.21699 4.794 5.14799 4.806 5.06399L4.824 5.11799C4.824 5.20199 4.794 5.27399 4.734 5.33399C4.674 5.39399 4.599 5.42399 4.509 5.42399C4.419 5.42399 4.344 5.39699 4.284 5.34299C4.224 5.28899 4.194 5.21999 4.194 5.13599C4.218 5.19599 4.257 5.24699 4.311 5.28899C4.365 5.33099 4.428 5.35199 4.5 5.35199ZM4.41 5.65799C4.41 5.66999 4.41 5.68799 4.41 5.71199C4.41 5.79599 4.38 5.86799 4.32 5.92799C4.26 5.98799 4.188 6.01799 4.104 6.01799C4.02 6.01799 3.948 5.98799 3.888 5.92799C3.828 5.86799 3.798 5.79599 3.798 5.71199C3.81 5.78399 3.846 5.84099 3.906 5.88299C3.966 5.92499 4.032 5.94599 4.104 5.94599C4.176 5.94599 4.242 5.91899 4.302 5.86499C4.362 5.81099 4.398 5.74199 4.41 5.65799ZM3.654 5.35199C3.738 5.35199 3.807 5.32499 3.861 5.27099C3.915 5.21699 3.954 5.14799 3.978 5.06399V5.11799C3.978 5.20199 3.948 5.27399 3.888 5.33399C3.828 5.39399 3.753 5.42399 3.663 5.42399C3.573 5.42399 3.498 5.39699 3.438 5.34299C3.378 5.28899 3.348 5.21999 3.348 5.13599C3.372 5.19599 3.411 5.24699 3.465 5.28899C3.519 5.33099 3.582 5.35199 3.654 5.35199ZM3.474 6.37799C3.558 6.37799 3.627 6.35099 3.681 6.29699C3.735 6.24299 3.768 6.17999 3.78 6.10799C3.792 6.10799 3.798 6.11999 3.798 6.14399C3.798 6.22799 3.768 6.30299 3.708 6.36899C3.648 6.43499 3.573 6.46799 3.483 6.46799C3.393 6.46799 3.318 6.43799 3.258 6.37799C3.198 6.31799 3.168 6.24599 3.168 6.16199C3.192 6.22199 3.231 6.27299 3.285 6.31499C3.339 6.35699 3.402 6.37799 3.474 6.37799ZM3.168 7.29599C3.084 7.29599 3.012 7.26599 2.952 7.20599C2.892 7.14599 2.862 7.07399 2.862 6.98999C2.874 7.04999 2.91 7.10099 2.97 7.14299C3.03 7.18499 3.096 7.20599 3.168 7.20599C3.24 7.20599 3.306 7.18199 3.366 7.13399C3.426 7.08599 3.462 7.01999 3.474 6.93599V6.97199C3.474 7.05599 3.444 7.13099 3.384 7.19699C3.324 7.26299 3.252 7.29599 3.168 7.29599ZM3.87 6.93599C3.786 6.93599 3.717 6.90599 3.663 6.84599C3.609 6.78599 3.576 6.71399 3.564 6.62999C3.624 6.77399 3.726 6.84599 3.87 6.84599C3.954 6.84599 4.023 6.82199 4.077 6.77399C4.131 6.72599 4.17 6.65999 4.194 6.57599V6.62999C4.194 6.71399 4.161 6.78599 4.095 6.84599C4.029 6.90599 3.954 6.93599 3.87 6.93599ZM4.5 6.37799C4.416 6.37799 4.344 6.34799 4.284 6.28799C4.224 6.22799 4.194 6.15599 4.194 6.07199C4.218 6.13199 4.257 6.18599 4.311 6.23399C4.365 6.28199 4.431 6.30599 4.509 6.30599C4.587 6.30599 4.653 6.27899 4.707 6.22499C4.761 6.17099 4.794 6.10199 4.806 6.01799L4.824 6.07199C4.824 6.15599 4.791 6.22799 4.725 6.28799C4.659 6.34799 4.584 6.37799 4.5 6.37799ZM12.888 7.65599H4.644C4.644 8.35199 4.839 8.99099 5.229 9.57299C5.619 10.155 6.147 10.62 6.813 10.968C7.479 11.316 8.208 11.49 9 11.49C9.696 11.49 10.344 11.355 10.944 11.085C11.544 10.815 12.048 10.443 12.456 9.96899C12.864 9.49499 13.134 8.96399 13.266 8.37599L14.184 7.09799H13.284L12.888 7.65599ZM9.018 10.716C8.01 10.668 7.158 10.344 6.462 9.74399C6.114 9.43199 5.856 9.10199 5.688 8.75399L5.994 8.60999C6.15 8.92199 6.39 9.21599 6.714 9.49199C7.338 10.044 8.112 10.344 9.036 10.392L9.018 10.716ZM17.028 0.509991L13.482 6.80999H14.382L18 0.509991H17.028Z" fill="#0CBCB7"/>
</svg>
