<svg width="8" height="16" viewBox="0 0 8 16" fill="none" xmlns="http://www.w3.org/2000/svg">
<path d="M5.944 9.47604C5.812 9.39204 5.746 9.26604 5.746 9.09804C5.758 8.29404 5.764 7.08204 5.764 5.46204V1.97004C5.764 1.75404 5.746 1.59204 5.71 1.48404C5.602 1.06404 5.368 0.722036 5.008 0.458036C4.648 0.194036 4.264 0.0860357 3.856 0.134036C3.376 0.182036 2.986 0.371037 2.686 0.701036C2.386 1.03104 2.236 1.43004 2.236 1.89804V9.11604C2.236 9.27204 2.176 9.39204 2.056 9.47604C1.18 10.064 0.67 10.892 0.526 11.96C0.43 12.716 0.574 13.424 0.958 14.084C1.318 14.732 1.828 15.218 2.488 15.542C3.184 15.878 3.904 15.968 4.648 15.812C6.148 15.488 7.072 14.57 7.42 13.058C7.576 12.386 7.519 11.723 7.249 11.069C6.979 10.415 6.544 9.88404 5.944 9.47604ZM6.826 12.842C6.73 13.43 6.475 13.934 6.061 14.354C5.647 14.774 5.146 15.047 4.558 15.173C3.97 15.299 3.406 15.242 2.866 15.002C2.326 14.762 1.897 14.393 1.579 13.895C1.261 13.397 1.114 12.854 1.138 12.266C1.186 11.222 1.672 10.424 2.596 9.87204C2.692 9.81204 2.758 9.75204 2.794 9.69204C2.83 9.63204 2.848 9.54204 2.848 9.42204L2.83 5.55204C2.83 5.43204 2.851 5.35104 2.893 5.30904C2.935 5.26704 3.016 5.25204 3.136 5.26404C3.208 5.27604 3.322 5.27604 3.478 5.26404H3.694C3.766 5.26404 3.823 5.25504 3.865 5.23704C3.907 5.21904 3.928 5.17704 3.928 5.11104C3.928 5.04504 3.907 5.00304 3.865 4.98504C3.823 4.96704 3.76 4.95804 3.676 4.95804H3.442C3.262 4.94604 3.13 4.94604 3.046 4.95804C2.962 4.97004 2.908 4.95504 2.884 4.91304C2.86 4.87104 2.845 4.80804 2.839 4.72404C2.833 4.64004 2.845 4.58004 2.875 4.54404C2.905 4.50804 2.962 4.49004 3.046 4.49004C3.19 4.50204 3.4 4.50804 3.676 4.50804C3.844 4.50804 3.928 4.45404 3.928 4.34604C3.928 4.23804 3.844 4.18404 3.676 4.18404H3.46C3.268 4.17204 3.13 4.17204 3.046 4.18404C2.962 4.19604 2.908 4.18104 2.884 4.13904C2.86 4.09704 2.848 4.03404 2.848 3.95004C2.836 3.79404 2.902 3.72204 3.046 3.73404C3.13 3.74604 3.268 3.74604 3.46 3.73404H3.694C3.766 3.73404 3.823 3.72504 3.865 3.70704C3.907 3.68904 3.928 3.64404 3.928 3.57204C3.928 3.50004 3.898 3.45204 3.838 3.42804C3.802 3.41604 3.736 3.41004 3.64 3.41004C3.388 3.41004 3.196 3.41604 3.064 3.42804C2.98 3.42804 2.92 3.41004 2.884 3.37404C2.848 3.33804 2.833 3.27804 2.839 3.19404C2.845 3.11004 2.863 3.05004 2.893 3.01404C2.923 2.97804 2.977 2.96004 3.055 2.96004C3.133 2.96004 3.238 2.96004 3.37 2.96004C3.502 2.96004 3.604 2.96304 3.676 2.96904C3.748 2.97504 3.808 2.96904 3.856 2.95104C3.904 2.93304 3.928 2.88804 3.928 2.81604C3.928 2.74404 3.907 2.69904 3.865 2.68104C3.823 2.66304 3.754 2.65404 3.658 2.65404H3.46C3.28 2.64204 3.148 2.64204 3.064 2.65404C2.896 2.66604 2.824 2.58804 2.848 2.42004C2.848 2.33604 2.863 2.27604 2.893 2.24004C2.923 2.20404 2.98 2.19204 3.064 2.20404H3.658C3.742 2.20404 3.805 2.19504 3.847 2.17704C3.889 2.15904 3.913 2.11404 3.919 2.04204C3.925 1.97004 3.907 1.92504 3.865 1.90704C3.823 1.88904 3.76 1.88004 3.676 1.88004H3.46C3.28 1.86804 3.142 1.86804 3.046 1.88004C2.95 1.89204 2.893 1.87704 2.875 1.83504C2.857 1.79304 2.86 1.72404 2.884 1.62804C2.968 1.34004 3.127 1.11804 3.361 0.962036C3.595 0.806036 3.868 0.746036 4.18 0.782036C4.444 0.806036 4.669 0.926036 4.855 1.14204C5.041 1.35804 5.14 1.61004 5.152 1.89804V9.38604C5.152 9.50604 5.173 9.60504 5.215 9.68304C5.257 9.76104 5.332 9.83004 5.44 9.89004C5.956 10.202 6.34 10.628 6.592 11.168C6.844 11.708 6.922 12.266 6.826 12.842ZM4.81 10.736C4.738 10.7 4.69 10.658 4.666 10.61C4.642 10.562 4.63 10.502 4.63 10.43V6.86604C4.63 6.66204 4.567 6.49404 4.441 6.36204C4.315 6.23004 4.162 6.17004 3.982 6.18204C3.802 6.19404 3.655 6.26604 3.541 6.39804C3.427 6.53004 3.37 6.69804 3.37 6.90204C3.37 8.45004 3.376 9.61404 3.388 10.394C3.388 10.49 3.37 10.562 3.334 10.61C3.298 10.658 3.238 10.706 3.154 10.754C2.758 10.934 2.458 11.219 2.254 11.609C2.05 11.999 1.978 12.404 2.038 12.824C2.122 13.304 2.338 13.703 2.686 14.021C3.034 14.339 3.442 14.507 3.91 14.525C4.378 14.543 4.801 14.414 5.179 14.138C5.557 13.862 5.806 13.493 5.926 13.031C6.046 12.569 6.001 12.122 5.791 11.69C5.581 11.258 5.254 10.94 4.81 10.736Z" fill="#0CBCB7"/>
</svg>
