<svg width="16" height="16" viewBox="0 0 16 16" fill="none" xmlns="http://www.w3.org/2000/svg">
<path d="M13.868 11.456C13.82 11.312 13.748 11.096 13.652 10.808C13.376 9.98004 13.142 9.37404 12.95 8.99004C11.582 6.21804 9.596 4.04605 6.992 2.47404C6.872 2.41405 6.788 2.34204 6.74 2.25805C6.692 2.17404 6.674 2.06604 6.686 1.93404C6.698 1.77804 6.704 1.52604 6.704 1.17805V0.926044L6.398 1.21404C6.158 1.45405 5.972 1.62805 5.84 1.73604C5.552 1.97604 5.108 2.32405 4.508 2.78004L4.022 3.15804L4.058 3.23004L6.524 2.70805C6.512 2.82804 6.509 3.01404 6.515 3.26604C6.521 3.51804 6.518 3.70404 6.506 3.82405C6.494 4.01604 6.458 4.18404 6.398 4.32804C5.126 7.64004 3.524 10.49 1.592 12.878C1.472 13.046 1.364 13.19 1.268 13.31L13.922 11.852L13.904 11.726C13.892 11.606 13.88 11.516 13.868 11.456ZM6.74 12.32V2.81604C7.136 4.65204 7.352 6.23604 7.388 7.56804C7.448 9.28404 7.232 10.868 6.74 12.32ZM0.134003 13.958C0.170003 14.042 0.218003 14.156 0.278003 14.3C0.374003 14.516 0.443003 14.675 0.485003 14.777C0.527003 14.879 0.581003 14.951 0.647003 14.993C0.713003 15.035 0.806003 15.056 0.926003 15.056H3.662C7.298 15.044 10.022 15.05 11.834 15.074C12.626 15.086 13.37 14.84 14.066 14.336L14.318 14.138C14.462 14.03 14.57 13.946 14.642 13.886C14.93 13.622 15.164 13.376 15.344 13.148C15.584 12.86 15.764 12.548 15.884 12.212L0.134003 13.958Z" fill="#0CBCB7"/>
</svg>
