<svg width="16" height="16" viewBox="0 0 16 16" fill="none" xmlns="http://www.w3.org/2000/svg">
<path d="M15.362 10.124V10.214C15.326 10.238 15.296 10.286 15.272 10.358V10.376C14.792 11.3 14.282 12.092 13.742 12.752C13.118 13.532 12.422 14.174 11.654 14.678C9.458 16.142 7.214 16.262 4.922 15.038C4.262 14.678 3.644 14.216 3.068 13.652C2.576 13.16 2.09 12.566 1.61 11.87C1.37 11.51 1.046 10.958 0.638 10.214V10.124C0.698 10.124 0.74 10.118 0.764 10.106C1.556 9.88999 2.336 9.90799 3.104 10.16C3.788 10.364 4.43 10.688 5.03 11.132C5.558 11.504 6.08 11.99 6.596 12.59C6.92 12.986 7.22 13.418 7.496 13.886V13.724C7.496 10.532 7.502 8.13799 7.514 6.54199C7.514 6.45799 7.496 6.40399 7.46 6.37999C7.424 6.35599 7.364 6.34399 7.28 6.34399C6.5 6.36799 5.774 6.19999 5.102 5.83999C4.142 5.34799 3.638 4.63399 3.59 3.69799C3.578 3.18199 3.578 2.65399 3.59 2.11399V0.115989L5.984 2.34799L8 0.115989L9.926 2.34799L12.356 0.115989L12.41 1.21399V1.33999C12.422 1.66399 12.422 2.14999 12.41 2.79799V3.51799C12.41 4.33399 12.086 4.99399 11.438 5.49799C10.754 6.03799 9.86 6.31999 8.756 6.34399C8.66 6.34399 8.591 6.36199 8.549 6.39799C8.507 6.43399 8.486 6.49999 8.486 6.59599C8.498 8.15599 8.504 10.496 8.504 13.616V13.67C8.504 13.742 8.51 13.796 8.522 13.832L8.558 13.814L8.648 13.652C9.452 12.356 10.478 11.354 11.726 10.646C12.722 10.082 13.694 9.86599 14.642 9.99799C14.75 10.01 14.9 10.034 15.092 10.07L15.362 10.124Z" fill="#0CBCB7"/>
</svg>
