<svg width="16" height="16" viewBox="0 0 16 16" fill="none" xmlns="http://www.w3.org/2000/svg">
<path d="M11.834 10.736C11.462 10.472 11.162 10.178 10.934 9.85399C10.706 9.52999 10.538 9.15199 10.43 8.71999C10.286 8.15599 9.968 7.69399 9.476 7.33399C8.984 6.97399 8.441 6.79999 7.847 6.81199C7.253 6.82399 6.728 7.00999 6.272 7.36999C5.816 7.72999 5.51 8.19799 5.354 8.77399C5.234 9.21799 5.09 9.57799 4.922 9.85399C4.706 10.19 4.424 10.46 4.076 10.664C3.668 10.892 3.368 11.216 3.176 11.636C3.008 11.984 2.918 12.356 2.906 12.752C2.894 13.616 3.059 14.291 3.401 14.777C3.743 15.263 4.238 15.554 4.886 15.65C5.186 15.686 5.504 15.668 5.84 15.596C6.104 15.536 6.41 15.434 6.758 15.29C7.706 14.894 8.588 14.918 9.404 15.362C9.476 15.398 9.578 15.44 9.71 15.488L9.818 15.542C10.55 15.842 11.24 15.758 11.888 15.29C12.332 14.966 12.668 14.54 12.896 14.012C13.124 13.436 13.166 12.872 13.022 12.32C12.866 11.696 12.47 11.168 11.834 10.736ZM11.276 5.78599C11.84 5.14999 12.197 4.46599 12.347 3.73399C12.497 3.00199 12.428 2.23399 12.14 1.42999C11.984 1.00999 11.756 0.700993 11.456 0.502993C11.156 0.304993 10.829 0.235992 10.475 0.295993C10.121 0.355993 9.782 0.547993 9.458 0.871993C8.714 1.61599 8.324 2.61799 8.288 3.87799C8.276 4.35799 8.36 4.81699 8.54 5.25499C8.72 5.69299 8.966 6.01399 9.278 6.21799C9.59 6.42199 9.923 6.48799 10.277 6.41599C10.631 6.34399 10.964 6.13399 11.276 5.78599ZM4.85 5.91199C5.15 6.18799 5.462 6.35299 5.786 6.40699C6.11 6.46099 6.413 6.40399 6.695 6.23599C6.977 6.06799 7.208 5.80399 7.388 5.44399C7.616 4.96399 7.718 4.44199 7.694 3.87799C7.67 2.56999 7.25 1.53799 6.434 0.781993C6.146 0.505993 5.84 0.343993 5.516 0.295993C5.192 0.247993 4.889 0.307993 4.607 0.475993C4.325 0.643992 4.094 0.904993 3.914 1.25899C3.734 1.61299 3.632 2.01799 3.608 2.47399C3.524 3.91399 3.938 5.05999 4.85 5.91199ZM15.812 5.51599C15.728 5.09599 15.524 4.78099 15.2 4.57099C14.876 4.36099 14.504 4.29199 14.084 4.36399C13.592 4.45999 13.118 4.71199 12.662 5.11999C12.206 5.52799 11.84 6.01399 11.564 6.57799C11.288 7.14199 11.156 7.68799 11.168 8.21599C11.168 8.33599 11.174 8.42599 11.186 8.48599C11.27 9.10999 11.495 9.55099 11.861 9.80899C12.227 10.067 12.686 10.106 13.238 9.92599C13.766 9.75799 14.258 9.42199 14.714 8.91799C15.146 8.43799 15.464 7.89199 15.668 7.27999C15.884 6.64399 15.932 6.05599 15.812 5.51599ZM4.814 8.34199C4.814 7.62199 4.652 6.96499 4.328 6.37099C4.004 5.77699 3.542 5.25799 2.942 4.81399C2.438 4.44199 1.94 4.28599 1.448 4.34599C1.004 4.39399 0.667998 4.59799 0.439998 4.95799C0.211998 5.31799 0.109998 5.82199 0.133998 6.46999C0.217998 7.17799 0.439998 7.80199 0.799998 8.34199C1.196 8.96599 1.742 9.45199 2.438 9.79999C2.87 10.016 3.269 10.091 3.635 10.025C4.001 9.95899 4.289 9.77299 4.499 9.46699C4.709 9.16099 4.814 8.78599 4.814 8.34199Z" fill="#0CBCB7"/>
</svg>
