<svg width="16" height="16" viewBox="0 0 16 16" fill="none" xmlns="http://www.w3.org/2000/svg">
<path d="M9.944 5.38998C10.208 5.38998 10.436 5.48598 10.628 5.67798C10.82 5.86998 10.916 6.10398 10.916 6.37998C10.916 6.65598 10.82 6.88998 10.628 7.08198C10.436 7.27398 10.208 7.36998 9.944 7.36998C9.68 7.36998 9.449 7.27098 9.251 7.07298C9.053 6.87498 8.954 6.64098 8.954 6.37098C8.954 6.10098 9.053 5.86998 9.251 5.67798C9.449 5.48598 9.68 5.38998 9.944 5.38998ZM5.57 5.10198C5.57 4.77798 5.687 4.49898 5.921 4.26498C6.155 4.03098 6.434 3.91398 6.758 3.91398C7.082 3.91398 7.358 4.03098 7.586 4.26498C7.814 4.49898 7.928 4.77798 7.928 5.10198C7.928 5.42598 7.814 5.70498 7.586 5.93898C7.358 6.17298 7.082 6.28998 6.758 6.28998C6.434 6.28998 6.155 6.17298 5.921 5.93898C5.687 5.70498 5.57 5.42598 5.57 5.10198ZM5.966 5.10198C5.966 5.31798 6.044 5.50398 6.2 5.65998C6.356 5.81598 6.542 5.89398 6.758 5.89398C6.974 5.89398 7.157 5.81598 7.307 5.65998C7.457 5.50398 7.532 5.31798 7.532 5.10198C7.532 4.88598 7.457 4.69998 7.307 4.54398C7.157 4.38798 6.974 4.30998 6.758 4.30998C6.542 4.30998 6.356 4.38798 6.2 4.54398C6.044 4.69998 5.966 4.88598 5.966 5.10198ZM6.83 2.09598C6.83 1.67598 6.98 1.31898 7.28 1.02498C7.58 0.730981 7.937 0.583981 8.351 0.583981C8.765 0.583981 9.119 0.730981 9.413 1.02498C9.707 1.31898 9.854 1.67298 9.854 2.08698C9.854 2.50098 9.707 2.85798 9.413 3.15798C9.119 3.45798 8.765 3.60798 8.351 3.60798C7.937 3.60798 7.58 3.45798 7.28 3.15798C6.98 2.85798 6.83 2.50398 6.83 2.09598ZM7.244 2.09598C7.244 2.39598 7.352 2.65398 7.568 2.86998C7.784 3.08598 8.045 3.19398 8.351 3.19398C8.657 3.19398 8.915 3.08598 9.125 2.86998C9.335 2.65398 9.44 2.39598 9.44 2.09598C9.44 1.79598 9.332 1.53798 9.116 1.32198C8.9 1.10598 8.642 0.997981 8.342 0.997981C8.042 0.997981 7.784 1.10598 7.568 1.32198C7.352 1.53798 7.244 1.79598 7.244 2.09598ZM12.194 14.66C12.014 14.672 11.894 14.696 11.834 14.732C11.726 14.792 11.69 14.906 11.726 15.074L11.744 15.11C11.816 15.326 11.882 15.482 11.942 15.578C12.05 15.722 12.194 15.806 12.374 15.83C12.53 15.854 12.65 15.815 12.734 15.713C12.818 15.611 12.848 15.482 12.824 15.326C12.788 15.11 12.74 14.954 12.68 14.858C12.572 14.714 12.41 14.648 12.194 14.66ZM0.134003 2.77998C0.134003 2.31198 0.251003 1.87398 0.485003 1.46598C0.719003 1.05798 1.037 0.73698 1.439 0.50298C1.841 0.268981 2.282 0.15198 2.762 0.15198C3.242 0.15198 3.683 0.268981 4.085 0.50298C4.487 0.73698 4.805 1.05798 5.039 1.46598C5.273 1.87398 5.39 2.31198 5.39 2.77998C5.39 3.24798 5.27 3.68598 5.03 4.09398C4.79 4.50198 4.469 4.82598 4.067 5.06598C3.665 5.30598 3.23 5.42598 2.762 5.42598C2.294 5.42598 1.859 5.30598 1.457 5.06598C1.055 4.82598 0.734003 4.50498 0.494003 4.10298C0.254003 3.70098 0.134003 3.25998 0.134003 2.77998ZM0.602003 2.77998C0.602003 3.17598 0.698003 3.53898 0.890003 3.86898C1.082 4.19898 1.346 4.46298 1.682 4.66098C2.018 4.85898 2.378 4.95798 2.762 4.95798C3.146 4.95798 3.503 4.86198 3.833 4.66998C4.163 4.47798 4.424 4.21398 4.616 3.87798C4.808 3.54198 4.904 3.17598 4.904 2.77998C4.904 2.38398 4.808 2.02098 4.616 1.69098C4.424 1.36098 4.166 1.09998 3.842 0.907981C3.518 0.715981 3.161 0.619981 2.771 0.619981C2.381 0.619981 2.018 0.715981 1.682 0.907981C1.346 1.09998 1.082 1.36398 0.890003 1.69998C0.698003 2.03598 0.602003 2.39598 0.602003 2.77998ZM13.94 8.97198C13.628 9.09198 13.394 9.17598 13.238 9.22398C11.51 9.83598 9.68 10.214 7.748 10.358C6.008 10.49 4.142 10.436 2.15 10.196L2.024 10.178C1.748 10.142 1.568 10.148 1.484 10.196C1.34 10.268 1.316 10.454 1.412 10.754C1.736 11.762 2.198 12.566 2.798 13.166C3.578 13.946 4.526 14.3 5.642 14.228C6.002 14.204 6.542 14.198 7.262 14.21H10.178C13.094 14.21 14.744 12.764 15.128 9.87198C15.188 9.37998 15.206 9.06198 15.182 8.91798C15.158 8.73798 15.05 8.65398 14.858 8.66598C14.714 8.67798 14.408 8.77998 13.94 8.97198ZM15.776 6.64998C15.668 6.44598 15.512 6.35598 15.308 6.37998C15.176 6.39198 14.99 6.46398 14.75 6.59598C12.758 7.62798 10.574 8.26398 8.198 8.50398C6.17 8.70798 3.896 8.62998 1.376 8.26998L1.178 8.23398C0.902003 8.17398 0.710003 8.16198 0.602003 8.19798C0.422003 8.24598 0.314003 8.40198 0.278003 8.66598C0.242003 8.92998 0.308003 9.11598 0.476003 9.22398C0.572003 9.28398 0.758003 9.33798 1.034 9.38598L1.232 9.42198C1.796 9.52998 2.432 9.60798 3.14 9.65598C3.548 9.69198 4.13 9.72798 4.886 9.76398L5.318 9.78198C7.25 9.76998 8.984 9.60798 10.52 9.29598C12.224 8.94798 13.796 8.39598 15.236 7.63998C15.5 7.50798 15.68 7.38798 15.776 7.27998C15.908 7.09998 15.908 6.88998 15.776 6.64998ZM4.184 14.732C4.004 14.696 3.866 14.738 3.77 14.858C3.71 14.93 3.65 15.062 3.59 15.254L3.572 15.344C3.536 15.476 3.563 15.59 3.653 15.686C3.743 15.782 3.86 15.836 4.004 15.848C4.352 15.86 4.58 15.608 4.688 15.092C4.724 14.96 4.694 14.864 4.598 14.804C4.55 14.78 4.454 14.762 4.31 14.75L4.184 14.732Z" fill="#0CBCB7"/>
</svg>
