<svg width="12" height="16" viewBox="0 0 12 16" fill="none" xmlns="http://www.w3.org/2000/svg">
<path d="M9.51 11.69C9.978 11.366 10.368 10.976 10.68 10.52C10.932 10.124 11.118 9.70403 11.238 9.26003C11.334 8.87603 11.37 8.52803 11.346 8.21603H3.048V8.37803C3.12 9.74603 3.72 10.838 4.848 11.654C4.896 11.69 4.929 11.726 4.947 11.762C4.965 11.798 4.962 11.846 4.938 11.906C4.698 12.614 4.35 13.676 3.894 15.092C3.858 15.224 3.792 15.422 3.696 15.686C3.9 15.746 4.098 15.806 4.29 15.866L4.452 15.362C4.584 14.99 4.674 14.714 4.722 14.534C4.734 14.462 4.761 14.414 4.803 14.39C4.845 14.366 4.902 14.354 4.974 14.354H9.528C9.6 14.354 9.657 14.366 9.699 14.39C9.741 14.414 9.768 14.462 9.78 14.534C9.828 14.69 9.906 14.936 10.014 15.272L10.212 15.884L10.806 15.686L9.51 11.69ZM4.938 13.904C5.106 13.352 5.31 12.734 5.55 12.05C6.69 12.506 7.824 12.494 8.952 12.014C9.168 12.626 9.372 13.256 9.564 13.904H4.938ZM7.512 0.764034C6.672 0.284034 5.85 0.0740337 5.046 0.134034C3.906 0.230034 2.952 0.692034 2.184 1.52003L1.914 1.34003L1.968 1.23203C2.004 1.14803 2.013 1.08203 1.995 1.03403C1.977 0.986033 1.932 0.938034 1.86 0.890034C1.716 0.806034 1.602 0.824034 1.518 0.944034C1.134 1.54403 0.851998 1.99403 0.671998 2.29403C0.599998 2.42603 0.629998 2.53403 0.761998 2.61803C0.845998 2.66603 0.914998 2.68403 0.968998 2.67203C1.023 2.66003 1.104 2.59403 1.212 2.47403L1.482 2.65403C1.086 3.63803 1.038 4.59803 1.338 5.53403C1.638 6.49403 2.232 7.25603 3.12 7.82003L7.512 0.764034ZM1.608 2.38403C1.572 2.36003 1.524 2.33003 1.464 2.29403L1.356 2.22203C1.464 2.03003 1.596 1.82003 1.752 1.59203L1.986 1.75403C1.902 1.88603 1.776 2.09603 1.608 2.38403ZM7.386 5.17403C7.038 5.52203 6.906 5.97203 6.99 6.52403C7.014 6.72803 7.089 6.92303 7.215 7.10903C7.341 7.29503 7.482 7.41803 7.638 7.47803L7.602 7.37003C7.578 7.32203 7.566 7.28603 7.566 7.26203C7.446 6.87803 7.41 6.53603 7.458 6.23603C7.506 5.90003 7.662 5.59403 7.926 5.31803C8.166 5.05403 8.316 4.73603 8.376 4.36403C8.424 4.08803 8.382 3.81203 8.25 3.53603C8.118 3.26003 7.938 3.06203 7.71 2.94203L7.728 3.03203C8.076 3.86003 7.962 4.57403 7.386 5.17403ZM8.844 7.49603C8.82 7.42403 8.802 7.37603 8.79 7.35203C8.574 6.71603 8.67 6.19403 9.078 5.78603C9.186 5.65403 9.264 5.52803 9.312 5.40803C9.432 5.13203 9.456 4.85903 9.384 4.58903C9.312 4.31903 9.156 4.10603 8.916 3.95003C8.916 3.96203 8.916 3.96803 8.916 3.96803H8.898C8.922 4.00403 8.946 4.05803 8.97 4.13003C9.15 4.73003 9.06 5.22803 8.7 5.62403C8.64 5.68403 8.562 5.78603 8.466 5.93003C8.31 6.21803 8.268 6.51203 8.34 6.81203C8.412 7.11203 8.58 7.34003 8.844 7.49603ZM6.594 5.49803C6.75 5.22203 6.789 4.93103 6.711 4.62503C6.633 4.31903 6.474 4.09403 6.234 3.95003C6.234 3.96203 6.234 3.96803 6.234 3.96803H6.216L6.252 4.05803C6.48 4.69403 6.384 5.23403 5.964 5.67803C5.832 5.82203 5.733 6.01403 5.667 6.25403C5.601 6.49403 5.613 6.72803 5.703 6.95603C5.793 7.18403 5.934 7.35803 6.126 7.47803L6.144 7.44203L6.09 7.29803C5.91 6.68603 6 6.19403 6.36 5.82203C6.432 5.75003 6.51 5.64203 6.594 5.49803Z" fill="#0CBCB7"/>
</svg>
