<svg width="28" height="26" viewBox="0 0 28 26" fill="none" xmlns="http://www.w3.org/2000/svg">
<path d="M27.3128 1.83774C27.1283 1.57124 26.954 1.31499 26.79 1.06899C26.421 0.556488 26.2058 0.300238 26.1443 0.300238C23.0898 2.18624 20.1173 4.45149 17.2268 7.09599C15.3408 8.81799 13.6085 10.6015 12.03 12.4465L6.77176 8.32599C6.71026 8.26449 6.19263 8.65911 5.21888 9.50986C4.24513 10.3606 3.77876 10.8065 3.81976 10.8475L13.4138 20.626C13.4958 20.708 13.588 20.749 13.6905 20.749L13.752 20.7182C13.8955 20.6772 13.9878 20.5952 14.0288 20.4722C14.6028 19.0372 15.4945 17.3255 16.704 15.337C18.057 13.1025 19.5638 10.9192 21.2243 8.78724C23.1718 6.30674 25.1603 4.13374 27.1898 2.26824C27.2513 2.22724 27.2923 2.16574 27.3128 2.08374C27.3333 2.00174 27.3333 1.91974 27.3128 1.83774ZM23.9303 22.4402C23.9303 22.9527 23.7509 23.3935 23.3921 23.7625C23.0334 24.1315 22.5978 24.316 22.0853 24.316H3.66601C3.15351 24.316 2.71788 24.1315 2.35913 23.7625C2.00038 23.3935 1.82101 22.9527 1.82101 22.4402V4.05174C1.82101 3.53924 2.00038 3.10361 2.35913 2.74486C2.71788 2.38611 3.15351 2.20674 3.66601 2.20674H19.8405L20.271 1.80699C20.64 1.45849 21.0193 1.12024 21.4088 0.792238H2.28226C1.76976 0.792238 1.33413 0.971613 0.975381 1.33036C0.616631 1.68911 0.437256 2.12474 0.437256 2.63724V23.8547C0.437256 24.3672 0.616631 24.8029 0.975381 25.1616C1.33413 25.5204 1.76976 25.6997 2.28226 25.6997H23.4998C24.0123 25.6997 24.4479 25.5204 24.8066 25.1616C25.1654 24.8029 25.3448 24.3672 25.3448 23.8547V6.91149C24.8118 7.38299 24.3403 7.76224 23.9303 8.04924V22.4402Z" fill="#0BF389"/>
</svg>
