<svg width="15" height="10" viewBox="0 0 15 10" fill="none" xmlns="http://www.w3.org/2000/svg">
<path d="M0.67041 1.23828C0.436035 1.12109 0.283691 0.992188 0.213379 0.851562C0.166504 0.710938 0.172363 0.617188 0.230957 0.570312C0.289551 0.523437 0.424316 0.5 0.635254 0.5H7.3501H14.0649C14.2759 0.5 14.4106 0.523437 14.4692 0.570312C14.5278 0.617188 14.5337 0.710938 14.4868 0.851562C14.4165 0.992188 14.2642 1.12109 14.0298 1.23828C10.1626 3.34766 8.18213 4.42578 8.08838 4.47266C7.90088 4.56641 7.65479 4.61328 7.3501 4.61328C7.04541 4.61328 6.79932 4.56641 6.61182 4.47266C6.51807 4.42578 4.5376 3.34766 0.67041 1.23828ZM14.3462 1.37891C14.5103 1.35547 14.5981 1.34961 14.6099 1.36133C14.6216 1.37305 14.6274 1.4375 14.6274 1.55469V8.76172C14.6274 8.92578 14.5396 9.08984 14.3638 9.25391C14.188 9.41797 14.0181 9.5 13.854 9.5H7.3501H0.846191C0.658691 9.5 0.471191 9.41797 0.283691 9.25391C0.0961914 9.08984 0.00244141 8.92578 0.00244141 8.76172V1.55469C0.00244141 1.34375 0.10791 1.28516 0.318848 1.37891C0.38916 1.42578 0.682129 1.61914 1.19775 1.95898C1.71338 2.29883 2.35205 2.72656 3.11377 3.24219C3.87549 3.75781 4.49072 4.16797 4.95947 4.47266L2.0415 7.74219C1.97119 7.8125 1.95947 7.87109 2.00635 7.91797C2.02979 7.94141 2.06494 7.94727 2.11182 7.93555C2.15869 7.92383 2.19385 7.90625 2.21729 7.88281L5.6626 4.96484C6.15479 5.29297 6.47119 5.49219 6.61182 5.5625C6.79932 5.65625 7.04541 5.70312 7.3501 5.70312C7.65479 5.70312 7.90088 5.65625 8.08838 5.5625C8.229 5.49219 8.54541 5.29297 9.0376 4.96484L12.4829 7.88281C12.5063 7.90625 12.5415 7.92383 12.5884 7.93555C12.6353 7.94727 12.6704 7.94141 12.6938 7.91797C12.7173 7.89453 12.6938 7.83594 12.6235 7.74219L9.74072 4.47266C10.2095 4.16797 10.8188 3.75781 11.5688 3.24219C12.3188 2.72656 12.9517 2.29883 13.4673 1.95898C13.9829 1.61914 14.2759 1.42578 14.3462 1.37891Z" fill="#0CBCB7"/>
</svg>
