<svg width="9" height="15" viewBox="0 0 9 15" fill="none" xmlns="http://www.w3.org/2000/svg">
<path d="M1.73169 2.16797C1.73169 2.16797 1.93677 1.96289 2.34692 1.55273C2.75708 1.14258 3.5481 0.9375 4.71997 0.9375C5.89185 0.9375 6.88794 1.34766 7.70825 2.16797C8.52856 2.98828 8.93872 3.98438 8.93872 5.15625C8.93872 6.13281 8.58716 7.36328 7.88403 8.84766C7.18091 10.332 6.47778 11.5723 5.77466 12.5684L4.71997 14.0625C4.40747 13.6328 4.01685 13.0811 3.5481 12.4072C3.07935 11.7334 2.45435 10.6006 1.6731 9.00879C0.891846 7.41699 0.501221 6.13281 0.501221 5.15625C0.501221 3.98438 0.911377 2.98828 1.73169 2.16797ZM3.73853 6.1377C3.73853 6.1377 3.80444 6.20361 3.93628 6.33545C4.06812 6.46729 4.32935 6.5332 4.71997 6.5332C5.1106 6.5332 5.43774 6.40137 5.70142 6.1377C5.96509 5.87402 6.09692 5.54687 6.09692 5.15625C6.09692 4.76563 5.96509 4.43848 5.70142 4.1748C5.43774 3.91113 5.1106 3.7793 4.71997 3.7793C4.32935 3.7793 4.0022 3.91113 3.73853 4.1748C3.47485 4.43848 3.34302 4.76563 3.34302 5.15625C3.34302 5.54687 3.47485 5.87402 3.73853 6.1377Z" fill="#0BF389"/>
</svg>
