<svg width="14" height="12" viewBox="0 0 14 12" fill="none" xmlns="http://www.w3.org/2000/svg">
<path d="M12.0476 1.3125C12.7117 1.99609 13.0437 2.83105 13.0437 3.81738C13.0437 4.80371 12.7117 5.63867 12.0476 6.32227L6.94995 11.625L1.85229 6.32227C1.18823 5.63867 0.856201 4.80371 0.856201 3.81738C0.856201 2.83105 1.18823 1.99609 1.85229 1.3125C2.43823 0.6875 3.15601 0.375 4.00562 0.375C4.85522 0.375 5.573 0.6875 6.15894 1.3125L6.94995 2.13281L7.77026 1.3125C8.3562 0.6875 9.06909 0.375 9.90894 0.375C10.7488 0.375 11.4617 0.6875 12.0476 1.3125Z" fill="#0CBCB7"/>
</svg>
