<svg width="13" height="14" viewBox="0 0 13 14" fill="none" xmlns="http://www.w3.org/2000/svg">
<path d="M9.03955 10.0469C9.35205 9.73437 9.76221 9.57812 10.27 9.57812C10.7778 9.57812 11.2075 9.75391 11.5591 10.1055C11.9106 10.457 12.0864 10.8867 12.0864 11.3945C12.0864 11.9023 11.9106 12.332 11.5591 12.6836C11.2075 13.0352 10.7778 13.2109 10.27 13.2109C9.76221 13.2109 9.33252 13.0352 8.98096 12.6836C8.62939 12.332 8.45361 11.9023 8.45361 11.3945C8.45361 11.2773 8.47314 11.1406 8.51221 10.9844L4.05908 8.40625C3.68799 8.73828 3.2583 8.9043 2.77002 8.9043C2.26221 8.9043 1.82275 8.71875 1.45166 8.34766C1.08057 7.97656 0.89502 7.53711 0.89502 7.0293C0.89502 6.52148 1.07568 6.08203 1.43701 5.71094C1.79834 5.33984 2.23291 5.1543 2.74072 5.1543C3.229 5.1543 3.65869 5.32031 4.02979 5.65234L8.45361 3.10352C8.41455 2.9082 8.39502 2.76172 8.39502 2.66406C8.39502 2.15625 8.58057 1.7168 8.95166 1.3457C9.32275 0.974609 9.76221 0.789062 10.27 0.789062C10.7778 0.789062 11.2173 0.974609 11.5884 1.3457C11.9595 1.7168 12.145 2.15625 12.145 2.66406C12.145 3.17188 11.9595 3.61133 11.5884 3.98242C11.2173 4.35352 10.7778 4.53906 10.27 4.53906C9.78174 4.53906 9.35205 4.37305 8.98096 4.04102L4.55713 6.58984C4.59619 6.78516 4.61572 6.93164 4.61572 7.0293C4.61572 7.12695 4.59619 7.27344 4.55713 7.46875L9.03955 10.0469Z" fill="#0CBCB7"/>
</svg>
